<?xml version="1.0" encoding="utf-8"?>
<!-- Generator: Adobe Illustrator 24.2.3, SVG Export Plug-In . SVG Version: 6.00 Build 0)  -->
<svg version="1.1" id="Layer_1" xmlns="http://www.w3.org/2000/svg" xmlns:xlink="http://www.w3.org/1999/xlink" x="0px" y="0px"
	 viewBox="0 0 1453 720" style="enable-background:new 0 0 1453 720;" xml:space="preserve">
<style type="text/css">
	.st0{fill:#0F4496;}
	.st1{fill:#FFFFFF;}
</style>
<rect class="st0" width="1453" height="720"/>
<path class="st1" d="M792.7230225,205v18.5330048l-8.9310303-9.7120056l-6.3919678,6.9680023l15.322998,16.6799927v141.3990173
	l-54.6160278-59.4179993v-81.9810181l15.3140259-16.6799927l-6.3920288-6.9680023l-8.9219971,9.7120056V205h-9.6300049v18.5330048
	l-8.9219971-9.7120056l-6.401001,6.9680023l15.322998,16.6799927v81.9810181l-54.5419922,59.4179993V237.4689941
	l15.3140259-16.6799927l-6.3920288-6.9680023l-8.9219971,9.7120056V205h-9.6209717v18.5330048l-8.9219971-9.7120056L649,220.7890015
	l15.3140259,16.6799927V500.651001h9.6209717V392.8039856l59.3530273-64.1779785l59.4349976,64.1779785V500.651001h9.6119995
	V237.4689941l15.3139648-16.6799927l-6.3930054-6.9680023l-8.9209595,9.7120056V205H792.7230225z"/>
</svg>
