<?xml version="1.0" encoding="utf-8"?>
<!-- Generator: Adobe Illustrator 24.2.3, SVG Export Plug-In . SVG Version: 6.00 Build 0)  -->
<svg version="1.1" id="Layer_1" xmlns="http://www.w3.org/2000/svg" xmlns:xlink="http://www.w3.org/1999/xlink" x="0px" y="0px"
	 viewBox="0 0 720 720" style="enable-background:new 0 0 720 720;" xml:space="preserve">
<style type="text/css">
	.st0{fill:#0F4496;}
	.st1{fill:#FFFFFF;}
</style>
<rect y="0.0000168" class="st0" width="720" height="720"/>
<path class="st1" d="M426.2230225,205.0000153V223.53302l-8.9310303-9.7120056l-6.3919678,6.9680023l15.322998,16.6799927
	V378.868042l-54.6160278-59.4179993v-81.9810333l15.3140259-16.6799927l-6.3920288-6.9680023l-8.9219971,9.7120056v-18.5330048
	h-9.6300049V223.53302l-8.9219971-9.7120056l-6.401001,6.9680023l15.322998,16.6799927v81.9810333l-54.5419922,59.4179993
	V237.4690094l15.3140259-16.6799927l-6.3920288-6.9680023l-8.9219971,9.7120056v-18.5330048h-9.6209717V223.53302
	l-8.9219971-9.7120056L282.5,220.7890167l15.3140259,16.6799927v263.1820068h9.6209717V392.8040161l59.3530273-64.1779785
	l59.4349976,64.1779785v107.8470154h9.6119995V237.4690094l15.3139648-16.6799927l-6.3930054-6.9680023l-8.9209595,9.7120056
	v-18.5330048H426.2230225z"/>
</svg>
