<?xml version="1.0" encoding="utf-8"?>
<!-- Generator: Adobe Illustrator 24.2.3, SVG Export Plug-In . SVG Version: 6.00 Build 0)  -->
<svg version="1.1" id="Layer_1" xmlns="http://www.w3.org/2000/svg" xmlns:xlink="http://www.w3.org/1999/xlink" x="0px" y="0px"
	 viewBox="0 0 245 63.6062012" style="enable-background:new 0 0 245 63.6062012;" xml:space="preserve">
<style type="text/css">
	.st0{clip-path:url(#SVGID_2_);}
	.st1{fill:#0F4496;}
</style>
<g>
	<defs>
		<rect id="SVGID_1_" width="245" height="63.6062012"/>
	</defs>
	<clipPath id="SVGID_2_">
		<use xlink:href="#SVGID_1_"  style="overflow:visible;"/>
	</clipPath>
	<g class="st0">
		<path class="st1" d="M0.747243,58.1850433V3.8466842c0-1.0132203,0-2.0441501-0.747243-3.0644603h10.4400997
			c-0.7471895,1.10179-0.7471895,2.1256402-0.7471895,3.2203405v54.0974808c0,1.572998,0,3.1423988,0.7471895,4.7154007H0
			c0.747243-1.5730019,0.747243-3.0645027,0.747243-4.6374016"/>
		<path class="st1" d="M30.0594997,57.1647453V4.7890539c0-1.3356099,0-2.6712198-0.7472-4.0068302h12.3063984
			l27.1451035,47.7524223V5.1043539c0-1.1832697,0.0000992-3.1459398-0.7436981-4.3221302h7.2316971
			c-0.7472992,1.3427-0.7472992,2.7597899-0.7472992,4.8854303v51.1215897c0,2.2743988,0,3.7693977,0.7472992,6.0473976h-7.3059998
			L35.8781013,7.2229042v49.9524384c0,1.8848,0,3.7695007,0.7436981,5.6683998h-7.3094997
			c0.7472-1.888298,0.7472-3.7729988,0.7472-5.6683998"/>
		<path class="st1" d="M112.6849976,58.5003433c14.0210037,0,21.7019958-12.2506981,21.7019958-26.1488991
			c0-16.0202007-10.2169952-27.2470894-24.1629944-27.2470894h-6.7890015v53.3959885H112.6849976z M94.4856033,56.9309425V4.7075739
			c0-1.3320699,0-2.5897398-1.4910049-3.92535h16.1844025c9.6959991,0,17.2259979,1.3356102,24.8359985,7.9321699
			c6.8600006,5.96595,10.9609985,13.8166504,10.9609985,23.3217506c0,7.6204987-2.6069946,17.0405998-9.3959961,23.9524002
			c-5.2230072,5.3388977-10.6660004,6.8339996-20.6570053,6.8339996H92.9945984
			C94.4856033,60.8598442,94.4856033,58.8936424,94.4856033,56.9309425z"/>
		<path class="st1" d="M209.2140045,35.1757431c0-16.1760998-10.5180054-30.3080292-23.5720062-30.3080292
			c-11.9309998,0-18.0610046,11.8575306-18.0610046,24.0303307c0,13.5048981,7.904007,29.8368988,22.8170013,29.8368988
			c12.3070068,0,18.7980042-11.1489983,18.7980042-23.5592003H209.2140045z M166.4049988,55.0469437
			c-5.6660004-5.5727005-9.4700012-14.2134018-9.4700012-23.3218002C156.9349976,13.7422438,170.6549988,0,188.3300018,0
			c17.8240051,0,31.4689941,13.9760437,31.4689941,32.3522453c0,18.7763977-14.8419952,31.2538948-31.6920013,31.2538948
			C180.2769928,63.6061401,172.3690033,60.9384422,166.4049988,55.0469437z"/>
		<path class="st1" d="M235.3070068,58.1850433V3.8466842c0-1.0203001,0-2.0441501-0.7440033-3.0644603H245
			c-0.7440033,1.10179-0.7440033,2.1256402-0.7440033,3.2203405v54.0974808c0,1.572998,0,3.1423988,0.7440033,4.7154007h-10.4369965
			c0.7440033-1.5730019,0.7440033-3.0645027,0.7440033-4.6374016"/>
	</g>
</g>
</svg>
