<?xml version="1.0" encoding="utf-8"?>
<!-- Generator: Adobe Illustrator 24.2.0, SVG Export Plug-In . SVG Version: 6.00 Build 0)  -->
<svg version="1.1" id="Layer_1" xmlns="http://www.w3.org/2000/svg" xmlns:xlink="http://www.w3.org/1999/xlink" x="0px" y="0px"
	 viewBox="0 0 161.5745239 22.2579956" style="enable-background:new 0 0 161.5745239 22.2579956;" xml:space="preserve">
<style type="text/css">
	.st0{fill:#FFFFFF;}
</style>
<g>
	<g>
		<path d="M61.9938049,14.3901062h-9.4700012L57.165802,3.525116L61.9938049,14.3901062z M64.1948242,21.2980957
			l-0.3260193,0.0890198l-0.0039978,0.6149902l5.4920044,0.0010071l-0.0020142-0.6029968l-0.2049866-0.0540161
			c-0.006012-0.0019836-0.0270081-0.0109863-0.0710144-0.0369873l-0.0839844-0.0480042
			c-0.1239929-0.0700073-0.2520142-0.1430054-0.3590088-0.2259827c-0.6399841-0.4900208-1.0050049-1.1830139-1.3059998-1.8610229
			c-2.1319885-4.8089905-8.2630005-18.6999817-8.303009-18.7929993l-0.0609741-0.1369934H54.790802V0.874115l0.2619934,0.0220032
			c0.8280029,0.09198,1.2660217,0.7529907,1.5540161,1.3190002c0.0319824,0.0629883,0.0570068,0.1130066,0.0750122,0.1499939
			l-0.0310059,0.071991c-0.257019,0.6060181-1.1570129,2.7189941-1.6010132,3.7709961
			C54.573822,7.3321228,54.099823,8.4571228,53.625824,9.5821228c-1.3059998,3.0939941-2.6550293,6.2949829-4.0140076,9.4400024
			c-0.4349976,1.0089722-0.9140015,1.9459839-1.9680176,2.321991l-0.3129883,0.0849915v0.5740051l4.1619873-0.0010071V21.394104
			l-0.2399902-0.0359802c-0.0499878-0.0110168-0.0750122-0.0230103-0.0809937-0.026001
			c-0.17099-0.0870056-0.3649902-0.1930237-0.4930115-0.3580017c-0.3320007-0.4240112-0.3959961-0.9410095-0.197998-1.5830078
			c0.3619995-1.17099,1.3840027-3.4750061,1.6719971-4.1170044l10.2230225-0.0029907
			c0.2759705,0.6519775,1.440979,3.3959961,1.9279785,4.5570068c0.2220154,0.5289917,0.2839966,0.9599915,0.1740112,1.2149963
			C64.4258118,21.1631165,64.3358154,21.2451172,64.1948242,21.2980957"/>
		<path d="M109.9326172,2.457489c0.1269836-0.894989,0.447998-1.3299866,1.1049805-1.5019836
			c0.0320129-0.0079956,0.1199951-0.0249939,0.1610107-0.0329895l0.2669983-0.0390015V0.2424927h-6.2640076v0.6410217
			l0.2730103,0.039978c0.0429993,0.0090027,0.125,0.0250244,0.1539917,0.0320129
			c0.6579895,0.1719971,0.9790039,0.6069946,1.1059875,1.5019836c0.1620178,1.1430054,0.1790161,2.3000183,0.1830139,3.4830017
			V16.292511c-0.0039978,1.1829834-0.0209961,2.3410034-0.1830139,3.4839783
			c-0.1269836,0.8950195-0.447998,1.3300171-1.1069946,1.5020142c-0.039978,0.0100098-0.17099,0.0350037-0.1820068,0.0360107
			l-0.243988,0.0359802v0.6410217h6.2640076v-0.6410217l-0.2440186-0.0359802c-0.0009766,0-0.1409912-0.0250244-0.1829834-0.0370178
			c-0.6579895-0.17099-0.9790039-0.6059875-1.1059875-1.5010071c-0.1620178-1.1409912-0.1790161-2.2989807-0.184021-3.4839783
			V5.9414978C109.7536011,4.7565002,109.7705994,3.5985107,109.9326172,2.457489"/>
		<path d="M4.7310181,2.457489C4.8580017,1.5625,5.178009,1.1275024,5.8359985,0.9555054
			C5.8670044,0.9475098,5.9509888,0.9315186,5.993988,0.9234924l0.2700195-0.039978V0.2424927H0v0.6410217l0.2680054,0.039978
			C0.3110046,0.9315186,0.3970032,0.9475098,0.427002,0.9555054C1.0849915,1.1275024,1.4060059,1.5625,1.5329895,2.457489
			c0.1610107,1.1420288,0.1790161,2.2990112,0.1830139,3.4830017V16.292511
			c-0.0039978,1.1839905-0.0220032,2.34198-0.1830139,3.4839783c-0.1279907,0.8950195-0.447998,1.3300171-1.1069946,1.5020142
			c-0.0409851,0.0109863-0.1809998,0.0360107-0.1820068,0.0360107L0,21.3504944v0.6410217h6.2640076v-0.6410217
			l-0.2460022-0.0359802c-0.0090027-0.0010071-0.1400146-0.026001-0.1820068-0.0370178
			c-0.6579895-0.17099-0.9779968-0.6059875-1.1049805-1.5010071c-0.1630249-1.1429749-0.1800232-2.3009949-0.184021-3.4839783
			V5.9414978C4.5509949,4.7575073,4.5679932,3.6004944,4.7310181,2.457489"/>
		<path d="M39.250824,2.457489c0.1269836-0.894989,0.447998-1.3299866,1.1049805-1.5019836
			c0.0320129-0.0079956,0.1199951-0.0249939,0.1610107-0.0329895l0.2669983-0.0390015V0.2424927h-4.7929993l-8.1860046,18.0980225
			L19.6708069,0.2365112h-5.0400085v0.6470032l0.2730103,0.039978c0.0429993,0.0090027,0.1260071,0.0250244,0.1549988,0.0320129
			c0.6579895,0.1719971,0.9779968,0.6069946,1.105011,1.5019836c0.1619873,1.1410217,0.1789856,2.2990112,0.1839905,3.4830017
			V16.292511c-0.0050049,1.1849976-0.0220032,2.3429871-0.1839905,3.4839783
			c-0.1270142,0.8950195-0.4470215,1.3300171-1.1069946,1.5020142c-0.0400085,0.0100098-0.1710205,0.0350037-0.1820068,0.0360107
			l-0.2440186,0.0359802v0.6410217h4.3320007v-0.6410217l-0.243988-0.0359802c0,0-0.1409912-0.0250244-0.1830139-0.0370178
			c-0.6579895-0.17099-0.9789734-0.6059875-1.1059875-1.5010071c-0.1619873-1.1439819-0.1789856-2.3009949-0.1839905-3.4839783
			l0.0019836-14.1440125l8.8300171,19.7659912l0.0390015,0.0870056h0.9979858l8.855011-19.6399841l0.0019836,13.9309998
			c-0.0050049,1.1829834-0.0220032,2.3399963-0.1839905,3.4839783c-0.1270142,0.8950195-0.447998,1.3300171-1.1069946,1.5020142
			c-0.0400085,0.0100098-0.1710205,0.0350037-0.1820068,0.0360107l-0.243988,0.0359802v0.6410217h6.5289917v-0.6410217
			l-0.2440186-0.0359802c0,0-0.1409912-0.0250244-0.1829834-0.0370178c-0.6579895-0.17099-0.9790039-0.6059875-1.1059875-1.5010071
			c-0.1620178-1.1439819-0.1790161-2.3009949-0.1830139-3.4839783V5.9414978
			C39.0718079,4.7585144,39.0888062,3.6015015,39.250824,2.457489"/>
		<path d="M161.5745239,4.8864746l-0.6730042-4.644989h-18.3710022l-0.6730042,4.644989h0.8039856l0.0429993-0.3639832
			l0.0080261-0.0390015c0.0829773-0.368988,0.1789856-0.7600098,0.315979-1.1300049
			c0.4120178-1.1119995,1.071991-1.7890015,2.0180054-2.0709839c0.4410095-0.131012,0.9360046-0.197998,1.5140076-0.2060242
			c0.9880066-0.0119934,3.0469971-0.0039978,3.7279968-0.0009766l0.0010071,0.3209839
			c0.0059814,6.9750061,0.0059814,11.9689941-0.0010071,14.8439941c-0.0029907,1.4290161-0.0660095,2.5140076-0.20401,3.5180054
			c-0.1239929,0.90802-0.4499817,1.3510132-1.1229858,1.5289917c-0.0760193,0.0200195-0.1380005,0.0310059-0.1520081,0.03302
			l-0.2539978,0.0289917v0.6520081h6.3209839v-0.6520081l-0.2559814-0.0299988
			c-0.0100098-0.0010071-0.0740051-0.0119934-0.1499939-0.0320129c-0.6730042-0.1779785-0.9990234-0.6209717-1.1230164-1.5289917
			c-0.1669922-1.2189941-0.1829834-2.4549866-0.1860046-3.5180054c-0.0109863-4.6199951-0.0009766-13.8429871,0-15.164978
			c0.6100159-0.0020142,2.70401-0.0100098,3.7109985,0.0009766c0.5770264,0.0080261,1.072998,0.0750122,1.5140076,0.2060242
			c0.9460144,0.2819824,1.6060181,0.9589844,2.0169983,2.071991c0.1369934,0.368988,0.2330017,0.7600098,0.3160095,1.1289978
			l0.0090027,0.0390015l0.0610046,0.3639832H161.5745239z"/>
		<path d="M134.6948242,12.6337891c-0.7480164-1.0899963-1.8050232-1.8919983-3.3280029-2.5249939
			c-1.0820007-0.4490051-2.2150269-0.7630005-3.3110046-1.0669861l-0.3600159-0.1000061
			c-1.2839966-0.3580017-2.6119995-0.7279968-3.7569885-1.4620056c-1.3850098-0.8880005-2.1620178-2.1659851-1.8089905-3.9089966
			c0.2389832-1.178009,1.0679932-2.0090027,2.4639893-2.4700012c0.6619873-0.2189941,1.428009-0.32901,2.2479858-0.3460083
			c3.4980164,0.0810242,5.9430237,2.0890198,7.098999,4.9060059h0.7080078l-0.6749878-5.1489868l-0.7319946,0.0010071
			l-0.0280151,0.1959839c0,0.0010071-0.0090027,0.052002-0.0499878,0.1470032
			c-0.1020203,0.2359924-0.2590027,0.4440002-0.4670105,0.5190125c-0.2590027,0.0939941-0.6359863,0.1080017-0.9660034-0.0480042
			c-1.8450012-0.8730164-3.4779968-1.2520142-4.8939819-1.2520142c-0.6500244,0-1.5920105,0.1080017-2.0230103,0.196991
			c-1.6669922,0.3450012-2.980011,1.1610107-3.9020081,2.4260254c-0.8509827,1.1659851-1.1809998,2.7070007-0.8819885,4.1239929
			c0.2070007,0.9819946,0.802002,2.3540039,2.4649963,3.3160095c1.2680054,0.7359924,2.6520081,1.1940002,3.9609985,1.6009827
			l0.4809875,0.1490173c1.3010254,0.3999939,2.6459961,0.8149719,3.8560181,1.4799805
			c1.0029907,0.5509949,1.5629883,1.1499939,1.8150024,1.9410095c0.2599792,0.8160095,0.3129883,1.6879883,0.1549988,2.5920105
			c-0.3150024,1.8069763-1.3890076,2.914978-3.2850037,3.3859863c-0.7120056,0.177002-1.4680176,0.2390137-2.3170166,0.1910095
			v0.0090027c-3.4719849-0.098999-5.8999939-2.1010132-7.0509949-4.9040222h-0.7080078l0.6750183,5.1480103h0.7319946
			l0.0280151-0.196991c0,0,0.0089722-0.0509949,0.0499878-0.1470032c0.1019897-0.2359924,0.2590027-0.4429932,0.4679871-0.5190125
			c0.2580261-0.0929871,0.6400146-0.1159973,0.9650269,0.0490112c1.6669922,0.8439941,2.7929993,1.276001,4.8409729,1.2859802
			v0.0090027c0.0910034,0.0030212,0.1809998,0.007019,0.2720032,0.007019c0.7420044,0,1.4949951-0.0769958,2.2360229-0.2310181
			c3.1929932-0.6609802,5.696991-3.1539917,5.8190002-6.2049866
			C135.5388184,14.4978027,135.2868042,13.4967957,134.6948242,12.6337891"/>
		<path d="M95.7187195,22.0049744h-0.5890198l-2.2049866-2.4749756c-1.5350037,1.1239929-2.4360046,1.6359863-3.6329956,2.0759888
			c-1.2310181,0.4530029-2.3980103,0.6520081-3.6080017,0.6520081c-1.15802,0-2.5930176-0.1669922-3.7200012-0.4949951
			c-3.4430237-1.0050049-7.5460205-3.7450256-7.5460205-11.0859985c0-2.9049988,1.1340027-5.6180115,3.1930237-7.6400146
			C79.5766907,1.1069946,82.6416931,0,85.304718,0c2.0950012,0,3.7719727,0.4769897,5.6699829,1.2819824
			c0.4160156,0.177002,0.7940063,0.2709961,1.2319946,0.0130005c0.4100037-0.242981,0.4430237-0.7829895,0.4430237-0.7829895
			h0.7399902l1.1139832,7.8980103h-0.7509766l-0.0390015-0.1630249C91.8937073,2.242981,89.2607117,0.776001,85.2817078,0.776001
			c-2.4100037,0-4.6530151,1.1829834-5.9989929,3.1629944c-1.0760193,1.5809937-1.6679993,3.9599915-1.6679993,6.6999817
			c0,8.5110168,4.0679932,10.375,6.4919739,10.7290039c1.7200012,0.25,2.9060059,0.1830139,4.2170105-0.2330017
			c3.131012-0.9949951,4.7250061-2.5780029,4.7250061-5.9830017l0.0019836-0.7779846
			c0-1.5350037-0.0469971-2.8619995-1.3699951-3.3560181l-0.2009888-0.0679932v-0.6560059l2.9049988,0.553009l2.9060059-0.553009
			v0.6560059l-0.2019958,0.0679932c-1.3220215,0.4940186-1.3699951,1.8210144-1.3699951,3.3560181V22.0049744z"/>
	</g>
</g>
</svg>
