<?xml version="1.0" encoding="utf-8"?>
<!-- Generator: Adobe Illustrator 24.2.3, SVG Export Plug-In . SVG Version: 6.00 Build 0)  -->
<svg version="1.1" id="Layer_1" xmlns="http://www.w3.org/2000/svg" xmlns:xlink="http://www.w3.org/1999/xlink" x="0px" y="0px"
	 viewBox="0 0 509.2137451 520.8920898" style="enable-background:new 0 0 509.2137451 520.8920898;" xml:space="preserve">
<style type="text/css">
	.st0{fill:#0F4496;}
</style>
<path class="st0" d="M226.0353546,300.1465149h33.4539948c7.1369934,0.6059875,14.2950134-0.901001,20.5780029-4.3320007
	c6.2829895-3.4299927,11.4120178-8.6329956,14.7449951-14.9559937c6.4460144-9.3860168,12.8919983-18.1940002,35.1950073-18.1940002
	c21.625-0.026001,42.3549805-8.6190033,57.6289978-23.8890076c15.2730103-15.2709961,23.8399963-35.9669952,23.8139954-57.5372009
	c-0.026001-21.5697937-8.6409912-42.2460938-23.9509888-57.4801941
	c-15.3099976-15.2341232-36.0599976-23.778183-57.6860046-23.7526093h-90.2410126
	c-22.7559967,0.0849991-44.5509949,9.1564331-60.6173859,25.2295074
	c-16.0664062,16.0731049-25.0959015,37.8392029-25.1128082,60.5359039v63.7775879
	c-0.0547028,18.3240204-5.3634949,36.2510223-15.3000031,51.6640167
	c-9.9364929,15.4129944-24.0859985,27.6690063-40.7788086,35.322998l1.8048325,6.4289856
	c19.9498825-2.875,38.6767807-11.322998,54.0161819-24.3670044v4.2440186c0,2.4429932,0,4.8859863,0.3867035,7.32901
	c-3.8955994,2.440979-7.9676971,4.5899963-12.1826019,6.4289856l1.8047943,6.4289856
	c3.9389038-0.526001,7.8370056-1.3209839,11.6670074-2.3779907c4.2715912,22.5840149,16.3269043,42.9680176,34.0787048,57.6210022
	c17.7513885,14.6530151,40.0823822,22.6530151,63.1243896,22.6150208c14.151001-0.0830078,28.1350098-3.052002,41.0939941-8.7230225
	c12.9580078-5.6719971,24.6160278-13.9279785,34.2580261-24.2590027
	c8.2599792-8.7109985,14.5929871-19.0559998,18.5899963-30.3629761c3.9979858-11.3080139,5.5699768-23.3270264,4.6149902-35.2790222
	h-6.4460144c0.1210022,14.4599915-3.5209961,28.70401-10.5709839,41.3400269
	c-8.3150024,12.7469788-20.5289917,22.4819946-34.82901,27.7589722
	c-14.3009949,5.2770081-29.9259949,5.8150024-44.5569916,1.5350037
	c-14.631012-4.2799988-27.4900055-13.1499939-36.6670074-25.2949829
	c-9.1779938-12.1440125-14.1859894-26.9160156-14.2819977-42.1240234v-1.4790039
	c-0.2120056-3.0569763,0.2089996-6.125,1.2369995-9.0119934c1.029007-2.8869934,2.6430054-5.5319824,4.7409973-7.769989
	c2.098999-2.2380066,4.6370087-4.0209961,7.4570007-5.2369995
	C219.922348,300.7625122,222.9633484,300.1385193,226.0353546,300.1465149z M198.7693481,281.3085327
	c7.2720032-0.5370178,14.3880005-2.3650208,21.0140076-5.4000244c-5.003006,12.6220093-12.6090088,24.0550232-22.3249969,33.5570068
	c-9.7164001,9.5029907-21.3258057,16.8640137-34.0763092,21.605011
	C179.9515533,318.4345093,192.2902527,301.0835266,198.7693481,281.3085327z M289.5273438,277.193512
	c-2.7669983,5.4420166-7.1109924,9.928009-12.4679871,12.875s-11.4790039,4.2180176-17.5700073,3.6490173h-33.4539948
	c-2.9759979,0.1369934-5.9219971,0.6549988-8.7660065,1.5429993c4.848999-7.6530151,8.6629944-15.9110107,11.3450012-24.5599976
	c16.0500031-11.5730286,25.7830048-31.6960144,26.5559998-57.2840118
	c4.8880005,11.2330017,12.2449951,21.2259979,21.5280151,29.2389832
	c9.2839966,8.0120087,20.2550049,13.8400116,32.1019897,17.0510101
	C300.6683655,263.3335266,293.9143677,269.4615173,289.5273438,277.193512z M405.0363464,181.2705078
	c0.0379944,9.8274994-1.8649902,19.5660095-5.6000061,28.6600037c-3.7349854,9.0940094-9.2299805,17.3659973-16.1699829,24.3419952
	s-15.1900024,12.5200043-24.2790222,16.3160095c-9.0879822,3.79599-18.8369751,5.7689972-28.6899719,5.8069916
	c-19.8990173,0.0769958-39.0140076-7.7339935-53.1390076-21.7140045c-14.125-13.9799957-22.1040039-32.9849854-22.181015-52.8323822
	v-0.9001007c0.0430145-19.847702,7.9890289-38.865509,22.0900116-52.869812
	c14.1010132-14.0042953,33.2019958-21.8478622,53.1010132-21.8052368
	c19.8989868,0.0426331,38.9659729,7.9679413,53.0069885,22.032547
	C397.2153625,142.371109,405.0793457,161.422821,405.0363464,181.2705078z M119.4858475,331.0065308
	c15.5284042-11.8890076,27.3712997-27.9140015,34.1628952-46.2260132v24.7520142
	C143.8553467,318.9485168,132.2274475,326.2575073,119.4858475,331.0065308z M160.0301514,322.5195312V185.8352203
	c0-21.0472107,8.3782043-41.2333069,23.2933044-56.1219025c14.9149017-14.8887024,35.1468964-23.2615738,56.2488861-23.2786102
	h58.0120087c-14.302002,6.2421112-26.5140076,16.4359055-35.1950073,29.3775024
	c-8.6799927,12.9417114-13.4659882,28.0906982-13.7929993,43.6580963v2.3145142l0.3220062,28.1596985
	c0,36.1319885-18.7570038,61.0130005-48.0859985,64.7420044c2.1139984-8.2140198,3.1959991-16.65802,3.2230072-25.1380157
	v-40.246994c2.9959869,2.2700043,6.6829987,3.4450073,10.4440002,3.3300018
	c3.7599945-0.1150055,7.3679962-1.5130005,10.2189941-3.9620056c2.8519897-2.447998,4.7749939-5.7979889,5.447998-9.490097
	c0.673996-3.6920929,0.0569916-7.503006-1.7470093-10.7962036c-1.8040009-3.2930908-4.6869965-5.8692017-8.1659851-7.2980957
	c-3.4790039-1.4288025-7.3440094-1.6239014-10.9500122-0.552597c-3.6059875,1.0713043-6.7339935,3.3439941-8.8629913,6.4386902
	c-2.128006,3.0947113-3.1273041,6.8240051-2.8310089,10.5651093v52.1411896
	c-0.04599,14.6460114-3.437088,29.0900116-9.9148865,42.2350006c-6.4777069,13.1450195-15.872406,24.6460266-27.4709015,33.6289978
	C160.1590424,324.4485168,160.0301514,323.4845276,160.0301514,322.5195312z M274.4443665,402.7565308
	c13.9849854,0.0220032,27.7119751-3.756012,39.7059937-10.9299927
	c-17.3200073,14.4309998-39.1199951,22.4279785-61.6870117,22.6309814
	c-21.6970062,0.0150146-42.7059937-7.5939941-59.3378906-21.4909973
	c-16.632309-13.8970032-27.8247986-33.1940002-31.6127014-54.5020142
	c13.321991-4.3359985,25.6391907-11.2869873,36.2256012-20.4449768c-0.3558044,2.1239929-0.5283051,4.2749939-0.5156097,6.4289856
	v1.4790039c0.0850983,20.3829956,8.2546082,39.9049988,22.7236023,54.3000183
	C234.4153442,394.6235352,254.0073547,402.7225342,274.4443665,402.7565308z"/>
</svg>
